# xmcd
#
# Track frame offsets: 
#        150
#        16482
#        32005
#        48227
#        70200
#        87082
#        103177
#        129017
#        144710
#        158059
#        185970
#        199395
#        220565
#        241930
#
# Disc length: 3401 seconds
#
# Revision: 4
# Processed by: cddbd v1.5.2PL0 Copyright (c) Steve Scherf et al.
# Submitted via: ExactAudioCopyFreeDBPlugin 1.0
#
DISCID=c10d470e
DTITLE=VLADIMÍR MIŠÍK and ETC... - 20 deka duše
DYEAR=1990
DGENRE=Rock
TTITLE0=20 deka duše
TTITLE1=Dojemný šlágr
TTITLE2=Šmajdák a ploužáky
TTITLE3=Černá holka
TTITLE4=Je po práci
TTITLE5=Sadem, lesem, parkem
TTITLE6=Americkej film
TTITLE7=Co ti dám?
TTITLE8=Životní režim
TTITLE9=Proměna
TTITLE10=Balada pivní
TTITLE11=Tvé oči
TTITLE12=Královský večer
TTITLE13=Špejchar blues
EXTD=YEAR: 2001 ID3G: 0
EXTT0=
EXTT1=
EXTT2=
EXTT3=
EXTT4=
EXTT5=
EXTT6=
EXTT7=
EXTT8=
EXTT9=
EXTT10=
EXTT11=
EXTT12=
EXTT13=
PLAYORDER=
